<?xml version="1.0"?>
<svg width="300" height="300" xmlns="http://www.w3.org/2000/svg" xmlns:svg="http://www.w3.org/2000/svg" preserveAspectRatio="xMidYMid meet">
 <g>
  <title>Layer 1</title>
  <g transform="translate(0,300) scale(0.10000000149011612,-0.10000000149011612) " fill="#252122" id="svg_1">
   <path fill="#081a55" d="m2245,2841c-11,-5 -56,-39 -100,-76c-115,-96 -111,-95 -213,-34c-103,62 -184,99 -218,99c-35,0 -81,-26 -89,-50c-22,-69 9,-206 81,-355c45,-94 72,-121 134,-134c66,-14 338,-14 378,0c46,16 84,80 147,248c22,60 31,197 16,244c-7,20 -22,44 -34,52c-23,16 -70,19 -102,6z" id="node1" class="node"/>
   <path fill="#081a55" d="m1693,2158c-33,-35 -68,-76 -79,-93c-10,-16 -21,-32 -24,-35c-19,-16 -105,-160 -148,-245c-80,-161 -118,-293 -103,-357l9,-38l-137,0c-75,0 -176,-7 -226,-15c-121,-20 -122,-20 -128,15l-6,30l-360,0c-334,0 -360,-1 -365,-17c-33,-107 -33,-1007 -1,-1151l5,-22l363,2l362,3l3,40c1,22 5,59 8,83l5,42l63,0c100,0 163,-24 358,-134c57,-33 222,-90 306,-106c89,-18 382,-8 447,14c140,49 264,107 273,128c2,4 9,8 16,8c21,0 185,150 362,332c208,213 229,247 222,366c-4,61 -10,86 -30,118c-46,72 -123,123 -211,139c-42,8 -41,2 -18,90c18,70 13,176 -13,257c-48,151 -155,352 -268,500c-76,101 -86,107 -145,95c-73,-14 -321,-20 -367,-8c-108,27 -107,27 -173,-41zm375,-349c3,-27 36,-46 48,-28c3,5 25,9 50,9l44,0l0,-75l0,-75l-42,0c-29,0 -54,8 -79,26c-63,44 -149,32 -149,-21c0,-27 40,-48 123,-66c96,-21 157,-80 157,-153c0,-69 -40,-110 -132,-140c-10,-3 -18,-15 -18,-26c0,-17 -6,-20 -45,-20c-41,0 -45,2 -45,24c0,27 -24,53 -35,36c-3,-5 -26,-10 -51,-10l-44,0l0,75l0,75l43,0c30,0 54,-9 86,-30c52,-36 102,-39 131,-10c16,16 18,25 10,40c-11,21 -59,50 -83,50c-33,0 -119,33 -146,56c-64,53 -62,158 3,208c19,14 41,26 48,26c20,0 38,21 38,43c0,15 7,18 43,15c37,-3 42,-6 45,-29zm-558,-574c205,-46 376,-120 505,-218c79,-61 105,-98 108,-155c1,-47 -30,-99 -75,-125c-33,-19 -123,-23 -172,-7c-17,5 -88,27 -157,50c-69,22 -130,40 -136,40c-11,0 -50,-106 -42,-114c12,-13 207,-76 294,-96c206,-48 319,-6 401,150c28,54 142,175 287,308c65,59 69,62 120,62c34,0 62,-7 80,-19c63,-41 85,-126 50,-191c-10,-18 -110,-126 -223,-242c-204,-209 -285,-276 -387,-319c-26,-11 -57,-25 -68,-30c-51,-25 -160,-42 -288,-46c-116,-3 -151,-1 -222,17c-107,27 -190,59 -262,103c-144,86 -231,117 -352,124l-94,6l6,161c3,89 2,244 -3,346c-4,102 -7,186 -5,188c1,1 44,9 96,17c127,19 435,14 539,-10z" id="node2" class="node"/>
  </g>
 </g>
</svg>